<?xml version="1.0" encoding="utf-8"?>
<!-- Generator: Adobe Illustrator 26.0.0, SVG Export Plug-In . SVG Version: 6.00 Build 0)  -->
<svg version="1.1" id="Capa_1" xmlns="http://www.w3.org/2000/svg" xmlns:xlink="http://www.w3.org/1999/xlink" x="0px" y="0px"
	 viewBox="0 0 2000 2000" style="enable-background:new 0 0 2000 2000;" xml:space="preserve">
<style type="text/css">
	.st0{fill:#FFFFFF;}
</style>
<path class="st0" d="M1002.2,955c-37.3,0-74.6-0.2-112,0.1c-9.5,0.1-14.5-3.8-14.4-14.5c0.3-32.8,0.5-65.6,0.7-98.5c0-3,0-6,0.1-9
	c0.3-7.3,4.4-11.2,11.7-11.2c35,0,70-0.1,105,0.1c4.4,0,6.6-1.1,7.8-5.5c2.2-7.4,8.6-10.1,15.2-12.4c2.5-0.9,5-1.6,7.4-2.7
	c4.8-2.2,7.4-5.8,8-11.2c0.1-1.2,2.1-2.2,3.2-3.3c0.9,1.2,2.4,2.3,2.6,3.6c1.2,8.1-4.1,14.4-13.2,17.3c-4.8,1.5-9.4,3.8-13.8,6.4
	c-1.6,1-2.1,3.8-3,5.8c1.9,0.6,3.8,1.8,5.8,1.8c33.7,0.1,67.3,0.1,101,0.1c10.4,0,14.1,3.5,14.1,14c0,35.6-0.2,71.2-0.4,106.9
	c0,7.8-4.6,12.1-12.6,12.1C1077.8,955,1040,955,1002.2,955z M1001.9,946.3C1001.9,946.2,1001.9,946.2,1001.9,946.3
	c21.5-0.1,43-0.2,64.4,0.1c5.1,0.1,6.9-1.8,6.7-6.6c-0.2-5.5-0.2-11,0-16.5c0.2-4.9-2.1-6.4-6.7-6.4c-18.3,0.1-36.6,0.1-54.9,0.1
	c-23.8,0-47.6,0-71.4,0c-8.6,0-8.7,0.1-8.7,8.6c0,4.8,0.2,9.7-0.1,14.5c-0.3,4.8,1.4,6.4,6.3,6.3
	C959,946.1,980.4,946.3,1001.9,946.3z M1078,903c0,0,0-0.1,0-0.1c9.2,0,18.3,0,27.5,0c3.8,0,5.4-1.7,5.4-5.5
	c-0.1-5.8,0-11.6,0.1-17.5c0-3.8-1.7-5.9-5.7-5.9c-18.5,0-36.9,0-55.4,0c-4.1,0-6.1,2-6,6.2c0.1,5.2,0,10.3,0,15.5
	c0,6.1,1,7.2,7.2,7.3C1060,903.1,1069,903,1078,903z M927.1,874.1C927.1,874.1,927.1,874.1,927.1,874.1c-9.3,0-18.6,0.1-28,0
	c-3.5,0-5.3,1.4-5.3,5c0,6.3,0,12.6-0.1,19c0,3.3,1.4,5,4.8,5c18.6,0,37.3,0,55.9,0c4,0,5.8-1.8,5.8-5.8c0-5.7-0.1-11.3,0.1-17
	c0.1-4.5-1.8-6.3-6.3-6.2C945.1,874.2,936.1,874.1,927.1,874.1z M1081.2,931.2C1081.2,931.2,1081.2,931.2,1081.2,931.2
	c-0.1,2.8,0.1,5.7-0.1,8.5c-0.3,4.7,1.8,6.7,6.4,6.6c5.6-0.1,11.3-0.2,16.9,0c4.2,0.1,6.2-1.8,6.2-5.9c0-5.6,0.2-11.3,0.1-16.9
	c-0.1-5.2-1.7-6.7-7.1-6.7c-4.1,0-8.3,0.1-12.4,0.1c-10,0.1-10,0.1-10.1,10.3C1081.2,928.6,1081.2,929.9,1081.2,931.2z
	 M1021.4,874.1c-3,0-6,0.1-9,0c-4.1-0.2-5.8,2-5.9,5.7c-0.1,5.7-0.2,11.3-0.1,17c0,4,1.8,6.2,6.1,6.2c4-0.1,8,0,12,0
	c11,0,11-0.1,11-10.8c0-1.3,0-2.7,0-4C1035.5,872.6,1037.4,874.2,1021.4,874.1z M1096.2,859.7c3.3,0,6.8,0.4,10-0.2
	c1.8-0.3,4.4-2.4,4.6-3.8c0.6-6.6,0.5-13.3,0.4-19.9c-0.1-3-1.9-4.9-5.2-4.9c-6.3,0-12.7,0-19,0.1c-3.7,0-5.4,1.9-5.3,5.7
	c0.1,3-0.1,6,0,9C1081.9,860.9,1078.7,859.8,1096.2,859.7z M894.1,845.5C894.1,845.5,894.1,845.5,894.1,845.5
	c-0.1,3.2,0,6.3-0.1,9.5c-0.1,3.4,1.3,4.9,4.7,4.9c6.5-0.1,13-0.1,19.5,0c3.4,0,4.8-1.8,4.9-4.9c0.1-6.2,0.2-12.3,0.2-18.5
	c0-3.5-1.8-5.6-5.6-5.6c-6.2,0-12.3,0-18.5,0c-3.4,0-5.3,1.5-5.2,5.1C894.2,839.1,894.1,842.3,894.1,845.5z M893.8,931.7
	C893.8,931.7,893.7,931.7,893.8,931.7c-0.1,3,0.1,6-0.1,9c-0.3,4,1.1,5.8,5.3,5.7c6-0.2,12-0.2,17.9,0c4.3,0.1,6-2.1,6-6.1
	c0-5.6-0.1-11.3,0.1-16.9c0.1-4.8-2.2-6.6-6.7-6.4c-4.1,0.1-8.3,0.1-12.4,0.1c-10,0-10,0-10,9.8
	C893.8,928.4,893.8,930.1,893.8,931.7z M1073.4,845.6c0,0,0.1,0,0.1,0c0-3-0.2-6,0-9c0.3-3.9-1.8-5.5-5.3-5.6
	c-6.1-0.2-12.3-0.2-18.4-0.1c-3.6,0.1-5.8,2.1-5.8,6c0,5.6,0.1,11.3,0,16.9c-0.1,4.2,1.9,6.1,6.1,6c5.6-0.1,11.3-0.1,16.9,0.1
	c5,0.2,7-1.9,6.4-6.9C1073.1,850.6,1073.4,848,1073.4,845.6z M1035.7,845.7C1035.7,845.7,1035.7,845.7,1035.7,845.7
	c0.1-3-0.1-6,0.1-9c0.3-4.4-1.8-6-6-5.9c-5.5,0.1-11,0.1-16.4,0c-4.7-0.1-6.7,2.2-6.7,6.7c0,5.6,0,11.3,0,16.9
	c0,3.7,1.7,5.5,5.5,5.4c4.1-0.1,8.3,0.1,12.5,0.1c11.7,0,11.1,0.6,11-10.7C1035.6,848,1035.7,846.8,1035.7,845.7z M997.9,889
	c0-3.2,0-6.3,0-9.5c0-3.7-1.7-5.5-5.5-5.4c-3.2,0.1-6.3,0-9.5,0c-14.9,0-14-1.3-13.9,14.1c0.1,16-2.2,14.8,14.5,14.8
	C999.7,902.9,997.6,904.6,997.9,889z M998,845.1C998,845.1,998,845.1,998,845.1c0-2.7-0.2-5.3,0.1-8c0.4-4.6-1.8-6.4-6.2-6.3
	c-5.3,0.1-10.7-0.1-16,0c-5.3,0.1-6.6,1.5-6.7,7c-0.1,5-0.1,10-0.1,15c0,6.1,0.9,7,6.9,7c4.8,0,9.7,0,14.5,0c7,0,7.5-0.6,7.5-7.8
	C998,849.8,998,847.4,998,845.1z M931.7,845.4C931.7,845.4,931.7,845.4,931.7,845.4c0,3.2,0,6.3-0.1,9.5c-0.1,3.3,1.3,4.9,4.7,4.9
	c6.3-0.1,12.6-0.1,19,0c3.2,0,5-1.2,5-4.7c0-6.5,0.1-13,0.1-19.5c0-3.3-1.9-4.8-5-4.8c-6.3,0-12.6,0-19,0.1c-3.3,0-4.8,1.8-4.8,5
	C931.7,839.1,931.7,842.3,931.7,845.4z"/>
<path class="st0" d="M850.9,880.5c18.8,17.8,16.5,42,7.7,55.9c-8.1,12.6-19.8,19.1-34.6,19.4c-18.5,0.3-37,0.1-55.5,0.1
	c-8.5,0-11.5-2.8-12-11.2c-0.4-6.1-0.2-12.3-0.2-18.5c0-31.1,0-62.3,0-93.4c0-2,0-4,0.2-6c0.8-8.1,3.8-10.8,12-10.8
	c17.2,0,34.3,0.1,51.5,0c16.8-0.1,29.6,6.8,36.7,22C863.6,852.8,862.2,867.4,850.9,880.5z M780.9,931.7c0.9,0.2,1.3,0.3,1.6,0.3
	c12.2,0,24.3,0.1,36.5,0.1c15.8,0,22.5-7,22.1-22.7c-0.3-10.3-5.7-15.9-16.1-16.4c-5.2-0.3-10.3-0.1-15.5-0.3
	c-7.6-0.3-10.5-3.5-10.3-11c0.1-6.8,3.1-9.5,10.5-9.8c5.7-0.2,11.3-0.1,16.9-0.8c5.9-0.7,8.7-3.9,9.8-9.7c2.6-12.8-3.6-21-16.7-21.4
	c-10.3-0.3-20.7-0.1-31-0.1c-2.6,0-5.2,0-7.8,0C780.9,871,780.9,901.2,780.9,931.7z"/>
<path class="st0" d="M1404.6,887.6c0-18.5,0-37,0-55.5c0-11.8,2.4-14.2,14-14.1c15.1,0.2,30.4-0.4,45.4,1
	c31.1,2.9,54.7,28,56.9,59.3c0.8,11.6,0.3,23-3.3,34.1c-9.1,27.7-32.4,44.9-62.1,45.4c-12.8,0.2-25.7,0.1-38.5,0
	c-9.2-0.1-12.4-3.1-12.4-12.3C1404.5,926.2,1404.6,906.9,1404.6,887.6C1404.6,887.6,1404.6,887.6,1404.6,887.6z M1429.3,843.2
	c0,29.9,0,59.9,0,89.9c10.5,0,20.7,0.7,30.7-0.1c16.7-1.3,28.4-10.5,33.7-26.2c2.4-7.2,3.3-15.3,3-23c-0.8-21.4-13.9-37.7-33.3-40.3
	C1452.4,842,1440.9,843.2,1429.3,843.2z"/>
<path class="st0" d="M1309.7,912.2c0,7.6,0.1,14.8,0,21.9c-0.1,5.3-0.2,10.6-0.5,16c-0.2,4.2-2.7,6.9-6.8,7.3
	c-3.4,0.3-7.2,0.8-10.3-0.3c-2.5-0.9-4.8-3.7-5.9-6.3c-1.1-2.4-0.8-5.6-0.8-8.4c0-36.3,0-72.6,0-108.9c0-2.5,0.2-5,0.6-7.5
	c0.6-4.1,3-6.5,7.1-7.3c0.7-0.1,1.3-0.4,2-0.4c18,0.2,36-0.7,53.9,0.9c21.9,1.9,37.3,20,38.2,41.9c0.8,18.8-5.4,34.2-21.4,45.6
	c3.5,5.4,6.9,10.6,10.4,15.9c3.1,4.7,6.2,9.5,9.3,14.2c6.3,9.7,2.6,18.7-8.7,21.1c-5.2,1.1-8.1-2.3-10.5-6
	c-7.2-10.8-14.7-21.4-21.4-32.5c-3.3-5.5-7-7.8-13.5-7.2C1324.3,912.7,1317.3,912.2,1309.7,912.2z M1310.1,843c0,15,0,29.9,0,45.1
	c10.6,0,20.9,0,31.2,0c12.3,0,19.6-6.2,21.5-18.3c2.1-13.7-4.8-25.6-16.9-26.6C1334.1,842.2,1322.3,843,1310.1,843z"/>
<path class="st0" d="M543.3,840.4c0,11.4,0,22.1,0,33.6c1.8,0,3.6,0,5.3,0c13.5,0,27,0,40.5,0c3.8,0,8.4,0.2,9.2,4.3
	c0.9,4.6,0.8,10-0.9,14.3c-0.8,2-6.3,2.9-9.7,3c-12.8,0.3-25.6,0.1-38.5,0.1c-1.8,0-3.6,0-5.8,0c0,11.9,0,23.5,0,35.7
	c1.7,0.1,3.4,0.2,5.2,0.2c19.2,0,38.3,0,57.5,0c2.7,0,5.6-0.5,7.9,0.5c2.6,1.1,5.8,3.3,6.5,5.7c1.1,3.6,1,8,0,11.8
	c-0.6,2.2-3.4,4.3-5.6,5.6c-1.7,1-4.2,0.8-6.3,0.8c-25.7,0-51.3,0.1-77,0c-10.1,0-12.7-2.5-12.7-12.7c-0.1-38.1-0.1-76.3,0-114.4
	c0-10,2.7-12.7,12.9-12.7c25.7-0.1,51.3-0.1,77,0c11.3,0,16.6,9.4,11.4,19.7c-2,4-5.5,4.4-9.3,4.5c-20.5,0.1-41,0.1-61.5,0.1
	C547.4,840.4,545.4,840.4,543.3,840.4z"/>
<path class="st0" d="M1277.2,946.2c0.1,6.2-3.7,9.8-10.9,12.1c-5.3,1.7-8.6,0.8-11.3-4.3c-4.4-8.4-8.7-16.9-12.3-25.6
	c-2.2-5.2-5-7-10.7-6.8c-16.3,0.5-32.6,0.3-48.9,0.1c-4-0.1-5.9,1.3-7.4,4.8c-3.6,8.4-7.7,16.6-11.7,24.8c-1.9,3.8-4.2,7.7-9.1,7.4
	c-5.5-0.3-10.5-2.3-13.7-7.1c-1-1.6-1-4.2-0.7-6.1c0.4-2.4,1.6-4.7,2.6-7c17.7-36.9,35.4-73.7,53-110.6c0.4-0.7,0.7-1.5,1.1-2.2
	c2.4-4.7,6.2-7.4,11.5-7.5c5.4-0.1,9,3,11.3,7.7c6.6,13.8,13.2,27.6,19.9,41.4c11.6,24.1,23.1,48.3,34.7,72.4
	C1275.8,942.2,1276.6,944.8,1277.2,946.2z M1208.6,856.7c-7.2,15.3-13.9,29.5-20.7,43.9c14,0,27.4,0,41.4,0
	C1222.4,885.9,1215.7,871.7,1208.6,856.7z"/>
<path class="st0" d="M1593,841.9c-2.4,0-4,0-5.6,0c-16.8,0-33.7,0.1-50.5,0c-11.3-0.1-16.6-8-11.7-18.4c1.1-2.4,4.8-4.3,7.7-5.1
	c3.3-0.9,6.9-0.3,10.4-0.3c23.5,0,47,0.1,70.5-0.1c5.4,0,9.9,1.3,12.6,6.3c2.6,5.1,1.6,9.8-1.6,14.5c-21,30.2-41.8,60.6-62.7,90.9
	c-0.9,1.3-1.7,2.7-3.2,5c2.6,0,4.3,0,6.1,0c17.5,0,35,0.3,52.5-0.1c13.1-0.3,14.6,6.7,12.3,17.8c-0.8,4-4.2,5.5-7.9,5.6
	c-4.2,0.2-8.3,0.2-12.5,0.2c-23.8,0-47.7-0.1-71.5,0.1c-5.4,0-10.1-1.1-12.6-6.2c-2.4-5.1-1.4-9.8,1.8-14.5
	c20.9-30.1,41.7-60.2,62.6-90.4C1590.7,845.7,1591.6,844.1,1593,841.9z"/>
<path class="st0" d="M448.7,886.3c12.7,11.8,25.3,23.5,37.8,35.2c5.1,4.8,10.3,9.4,15.3,14.3c6,5.8,6,10.1,0.4,15.8
	c-6.8,6.9-11.3,7.2-17.4,1.3c-16.3-15.8-32.5-31.6-48.8-47.4c-0.9-0.9-1.9-1.8-3.5-3.2c-0.2,2.1-0.4,3.4-0.4,4.8
	c0,12.7,0.1,25.3-0.1,38c-0.1,8.2-3.2,10.8-12.1,10.8c-8.7,0-11.9-2.8-11.9-11c-0.1-39.3-0.1-78.7,0-118c0-8,3.5-10.9,12.2-10.9
	c8.4,0,11.7,2.8,11.8,10.6c0.2,13.8,0,27.6,0,42.7c2.1-1.8,3.4-2.9,4.6-4.1c15.5-15.1,31.1-30.2,46.6-45.3
	c7.9-7.7,19.1-4.8,21.6,6.2c0.6,2.6-1,6.5-2.8,8.9c-2.9,3.8-6.8,6.8-10.3,10.1c-14.1,13.2-28.2,26.4-42.3,39.7
	C449.3,885.1,449.2,885.5,448.7,886.3z"/>
<path class="st0" d="M687.6,877.5c8.7-13.6,17.1-26.6,25.5-39.6c3.9-6,7.6-12.1,11.7-18c4.6-6.7,9.3-7.1,16.6-2.1
	c7.1,4.8,8.1,8.9,3.5,15.8c-14,21.3-28.2,42.5-42.1,63.8c-1.5,2.3-2.5,5.5-2.5,8.2c-0.3,13.2-0.1,26.3-0.2,39.5
	c-0.1,8.3-3.2,11-11.9,11c-9.1,0-12.1-2.6-12.2-11.2c-0.2-13,0.1-26-0.2-39c-0.1-2.9-1-6.3-2.6-8.7c-13.8-21-27.8-41.9-41.7-62.8
	c-2.2-3.3-4.9-6.8-2.3-11c3.3-5.1,8.1-9,14.2-8.9c2.8,0.1,6.4,3.4,8.3,6.2c8.8,13.2,17,26.6,25.5,40
	C680.4,866.1,683.8,871.4,687.6,877.5z"/>
</svg>
